<?xml version="1.0" encoding="UTF-8" standalone="no"?>
<!-- Generated by Microsoft Visio, SVG Export MavLogo_15+name.svg Page-1 -->

<svg
   xmlns:dc="http://purl.org/dc/elements/1.1/"
   xmlns:cc="http://creativecommons.org/ns#"
   xmlns:rdf="http://www.w3.org/1999/02/22-rdf-syntax-ns#"
   xmlns:svg="http://www.w3.org/2000/svg"
   xmlns="http://www.w3.org/2000/svg"
   xmlns:sodipodi="http://sodipodi.sourceforge.net/DTD/sodipodi-0.dtd"
   xmlns:inkscape="http://www.inkscape.org/namespaces/inkscape"
   width="10.183872in"
   height="3.3013296in"
   viewBox="0 0 733.23765 237.69568"
   xml:space="preserve"
   class="st6"
   version="1.1"
   id="svg147"
   sodipodi:docname="MavLogo_17+name.svg"
   inkscape:version="0.92.4 (5da689c313, 2019-01-14)"
   style="font-size:12px;overflow:visible;color-interpolation-filters:sRGB;fill:none;fill-rule:evenodd;stroke-linecap:square;stroke-miterlimit:3"><metadata
   id="metadata153"><rdf:RDF><cc:Work
       rdf:about=""><dc:format>image/svg+xml</dc:format><dc:type
         rdf:resource="http://purl.org/dc/dcmitype/StillImage" /><dc:title></dc:title></cc:Work></rdf:RDF></metadata><defs
   id="defs151" /><sodipodi:namedview
   pagecolor="#ffffff"
   bordercolor="#666666"
   borderopacity="1"
   objecttolerance="10"
   gridtolerance="10"
   guidetolerance="10"
   inkscape:pageopacity="0"
   inkscape:pageshadow="2"
   inkscape:window-width="1141"
   inkscape:window-height="777"
   id="namedview149"
   showgrid="false"
   inkscape:pagecheckerboard="true"
   inkscape:zoom="0.69"
   inkscape:cx="474.52228"
   inkscape:cy="158.46094"
   inkscape:window-x="0"
   inkscape:window-y="0"
   inkscape:window-maximized="0"
   inkscape:current-layer="group98-1"
   fit-margin-left="0.01"
   fit-margin-bottom="0.01"
   fit-margin-top="0.01"
   fit-margin-right="0.01" />
	<style
   type="text/css"
   id="style2">
	<![CDATA[
		.st1 {fill:#ffffff;stroke:none;stroke-linecap:round;stroke-linejoin:round;stroke-width:1}
		.st2 {fill:#214978;stroke:none;stroke-linecap:round;stroke-linejoin:round;stroke-width:1}
		.st3 {fill:#a6d8d5;stroke:none;stroke-linecap:round;stroke-linejoin:round;stroke-width:1}
		.st4 {fill:#adc3dc;stroke:none;stroke-linecap:round;stroke-linejoin:round;stroke-width:1}
		.st5 {fill:#18716a;stroke:none;stroke-linecap:round;stroke-linejoin:round;stroke-width:1}
		.st6 {fill:none;fill-rule:evenodd;font-size:12px;overflow:visible;stroke-linecap:square;stroke-miterlimit:3}
	]]>
	</style>

	<g
   id="g145"
   transform="translate(-31.165891,-34.65)">
		<title
   id="title4">Page-1</title>
		<g
   id="group98-1"
   transform="translate(0.5,-0.5)">
			<title
   id="title6">Sheet.98</title>
			
			<g
   id="group88-4"
   transform="translate(31.3854,-34.875)">
				<title
   id="title13">Sheet.88</title>
				<g
   id="shape55-5"
   transform="translate(0.366449)">
					<title
   id="title15">Sheet.55</title>
					<path
   d="M 204.47,275.68 A 103.124,26.4375 -180 0 0 2.16,275.18 l -1.27,1.91 a 103.124,26.4375 -180 1 0 204.08,-0.67 z"
   class="st2"
   id="path17"
   inkscape:connector-curvature="0"
   style="fill:#214978;stroke:none;stroke-width:1;stroke-linecap:round;stroke-linejoin:round" />
				</g>
				<g
   id="shape56-7"
   transform="translate(67.6209,-124.875)">
					<title
   id="title20">Sheet.56</title>
					<path
   d="M 21.3,301.38 A 78.3186,25.3292 171.22 0 1 73.98,307 L 137.87,214.75 0,195.62 Z"
   class="st3"
   id="path22"
   inkscape:connector-curvature="0"
   style="fill:#a6d8d5;stroke:none;stroke-width:1;stroke-linecap:round;stroke-linejoin:round" />
				</g>
				<g
   id="shape57-9"
   transform="translate(2.52945,-31.3197)">
					<title
   id="title25">Sheet.57</title>
					<path
   d="m 86.39,207.82 a 39.8513,16.3023 -180 0 0 -26.9,9 L 0,306.5 a 103.124,26.4375 0 0 1 202.31,0.5 l -63.24,-93.56 a 78.3186,25.3292 -8.78 0 0 -52.68,-5.62 z"
   class="st4"
   id="path27"
   inkscape:connector-curvature="0"
   style="fill:#adc3dc;stroke:none;stroke-width:1;stroke-linecap:round;stroke-linejoin:round" />
				</g>
				<g
   id="shape58-11"
   transform="translate(0,-121.5)">
					<title
   id="title30">Sheet.58</title>
					<path
   d="M 88.92,298 67.62,192.25 0,226.97 62.02,307 a 39.8513,16.3023 0 0 1 26.9,-9 z"
   class="st5"
   id="path32"
   inkscape:connector-curvature="0"
   style="fill:#18716a;stroke:none;stroke-width:1;stroke-linecap:round;stroke-linejoin:round" />
				</g>
			</g>
			<g
   id="group97-13"
   transform="translate(251.083)">
				<title
   id="title36">Sheet.97</title>
				
				<g
   id="shape64-16"
   transform="translate(4.24098,-150.585)">
					<title
   id="title43">Sheet.64</title>
					<path
   d="m 76.12,304.85 c 0,0.37 -0.1,0.68 -0.24,0.91 -0.19,0.26 -0.57,0.52 -1,0.67 -0.52,0.16 -1.19,0.31 -2,0.41 -0.81,0.11 -1.81,0.16 -3.09,0.16 -1.19,0 -2.19,-0.05 -3,-0.16 -0.81,-0.1 -1.48,-0.25 -1.91,-0.41 -0.47,-0.15 -0.85,-0.41 -1.04,-0.67 -0.19,-0.23 -0.29,-0.54 -0.29,-0.91 0,-17.93 0,-35.85 0,-53.79 -0.05,0 -0.05,0 -0.09,0 -6.19,17.94 -12.76,35.8 -18.95,53.74 -0.14,0.47 -0.33,0.8 -0.62,1.06 -0.33,0.31 -0.71,0.57 -1.24,0.73 -0.57,0.15 -1.19,0.31 -2,0.36 -0.81,0.05 -1.8,0.05 -2.95,0.05 -1.14,0 -2.09,-0.05 -2.9,-0.1 -0.81,-0.11 -1.48,-0.26 -2,-0.47 -0.52,-0.15 -0.95,-0.41 -1.24,-0.67 -0.28,-0.23 -0.52,-0.6 -0.62,-0.96 -5.95,-17.94 -12.28,-35.82 -18.28,-53.74 0,0 -0.04,0 -0.09,0 0,17.94 0,35.86 0,53.79 0,0.37 -0.1,0.68 -0.24,0.91 -0.19,0.26 -0.57,0.52 -1.05,0.67 -0.52,0.16 -1.19,0.31 -1.95,0.41 -0.76,0.11 -1.81,0.16 -3.05,0.16 -1.23,0 -2.23,-0.05 -3.04,-0.16 -0.81,-0.1 -1.48,-0.25 -1.91,-0.41 -0.52,-0.15 -0.85,-0.41 -1,-0.67 C 0.1,305.53 0,305.22 0,304.85 c 0,-19.64 0,-39.26 0,-58.9 0,-1.74 0.48,-3.05 1.38,-3.98 0.91,-0.93 2.1,-1.37 3.62,-1.37 2.9,0 5.81,0 8.71,0 1.52,0 2.86,0.1 3.95,0.36 1.14,0.26 2.1,0.7 2.91,1.26 0.8,0.62 1.47,1.37 1.99,2.36 0.58,0.98 1,2.19 1.43,3.62 4.62,13.13 9.48,26.26 14.14,39.39 0.05,0 0.1,0 0.19,0 4.81,-13.11 9.86,-26.19 14.62,-39.29 0.47,-1.42 0.9,-2.64 1.47,-3.62 0.48,-0.98 1.14,-1.78 1.81,-2.4 0.67,-0.62 1.48,-1.06 2.43,-1.32 0.95,-0.26 2.05,-0.36 3.28,-0.36 3,0 5.95,0 8.95,0 0.91,0 1.72,0.1 2.34,0.36 0.66,0.26 1.19,0.54 1.66,1.01 0.38,0.46 0.67,1.03 0.95,1.68 0.19,0.67 0.29,1.44 0.29,2.3 0,19.64 0,39.26 0,58.9 z"
   class="st5"
   id="path45"
   inkscape:connector-curvature="0"
   style="fill:#18716a;stroke:none;stroke-width:1;stroke-linecap:round;stroke-linejoin:round" />
				</g>
				<g
   id="shape65-18"
   transform="translate(88.035,-150.585)">
					<title
   id="title48">Sheet.65</title>
					<path
   d="m 54.28,302.13 c 0.35,1.13 0.57,2.01 0.7,2.67 0.04,0.66 -0.09,1.11 -0.39,1.44 -0.31,0.33 -0.92,0.57 -1.79,0.67 -0.91,0.04 -2.04,0.09 -3.57,0.09 -1.56,0 -2.78,0 -3.65,-0.05 -0.87,-0.04 -1.57,-0.14 -2.01,-0.33 -0.48,-0.14 -0.82,-0.33 -1,-0.57 -0.17,-0.23 -0.3,-0.54 -0.43,-0.97 -1.35,-4.04 -2.75,-8.1 -4.05,-12.15 -7.45,0 -14.94,0 -22.43,0 -1.22,3.95 -2.52,7.88 -3.78,11.82 -0.14,0.43 -0.27,0.78 -0.44,1.07 -0.26,0.33 -0.57,0.57 -1,0.71 -0.44,0.19 -1.09,0.33 -1.87,0.38 -0.83,0.04 -1.92,0.09 -3.23,0.09 -1.43,0 -2.52,-0.05 -3.35,-0.14 -0.74,-0.1 -1.3,-0.33 -1.65,-0.71 -0.31,-0.33 -0.4,-0.83 -0.31,-1.49 0.09,-0.66 0.35,-1.54 0.7,-2.62 6.01,-17.88 12.41,-35.75 18.42,-53.65 0.17,-0.5 0.43,-0.97 0.65,-1.3 0.22,-0.33 0.65,-0.54 1.18,-0.73 0.52,-0.14 1.26,-0.29 2.22,-0.33 0.95,-0.05 2.22,-0.05 3.78,-0.05 1.79,0 3.27,0 4.36,0.05 1.04,0.04 1.91,0.19 2.52,0.33 0.61,0.19 1.01,0.47 1.31,0.78 0.22,0.33 0.44,0.8 0.65,1.39 6.01,17.9 12.41,35.73 18.46,53.6 z M 26.85,257.8 c -0.04,0 -0.04,0 -0.04,0 -2.79,8.56 -5.7,17.12 -8.45,25.7 5.62,0 11.28,0 16.94,0 -2.74,-8.58 -5.7,-17.14 -8.45,-25.7 z"
   class="st5"
   id="path50"
   inkscape:connector-curvature="0"
   style="fill:#18716a;stroke:none;stroke-width:1;stroke-linecap:round;stroke-linejoin:round" />
				</g>
				<g
   id="shape66-20"
   transform="translate(140.422,-150.585)">
					<title
   id="title53">Sheet.66</title>
					<path
   d="m 35.12,304.56 c -0.13,0.52 -0.39,0.95 -0.61,1.26 -0.22,0.33 -0.65,0.61 -1.22,0.75 -0.52,0.19 -1.26,0.34 -2.26,0.38 -0.96,0.05 -2.18,0.05 -3.7,0.05 -1.27,0 -2.27,0 -3.14,0 -0.91,-0.05 -1.7,-0.09 -2.26,-0.14 -0.61,-0.05 -1.14,-0.14 -1.48,-0.29 -0.44,-0.14 -0.74,-0.28 -1.01,-0.47 -0.26,-0.19 -0.43,-0.42 -0.56,-0.68 -0.18,-0.24 -0.31,-0.57 -0.44,-1 -5.79,-17.87 -11.97,-35.7 -17.76,-53.59 -0.35,-1.11 -0.61,-2.01 -0.65,-2.65 -0.09,-0.66 0.04,-1.18 0.47,-1.49 0.35,-0.33 1.01,-0.52 1.92,-0.62 0.91,-0.04 2.22,-0.09 3.88,-0.09 1.43,0 2.56,0.05 3.35,0.09 0.78,0.05 1.43,0.19 1.83,0.34 0.43,0.14 0.74,0.35 0.91,0.68 0.13,0.33 0.35,0.71 0.48,1.18 4.75,15.56 9.8,31.07 14.54,46.63 0,0 0.05,0 0.05,0 4.66,-15.49 9.58,-30.93 14.23,-46.39 0.14,-0.52 0.31,-0.99 0.48,-1.32 0.18,-0.34 0.53,-0.55 0.96,-0.74 0.44,-0.19 1.09,-0.33 1.92,-0.38 0.82,-0.04 1.96,-0.09 3.39,-0.09 1.44,0 2.57,0.05 3.31,0.14 0.83,0.1 1.31,0.33 1.66,0.64 0.26,0.38 0.35,0.9 0.26,1.56 -0.13,0.64 -0.39,1.54 -0.74,2.6 -5.84,17.9 -12.02,35.75 -17.81,53.64 z"
   class="st5"
   id="path55"
   inkscape:connector-curvature="0"
   style="fill:#18716a;stroke:none;stroke-width:1;stroke-linecap:round;stroke-linejoin:round" />
				</g>
				<g
   id="shape67-22"
   transform="translate(201.71,-150.585)">
					<title
   id="title58">Sheet.67</title>
					<path
   d="m 12.19,305.04 c 0,0.33 -0.13,0.61 -0.3,0.83 -0.22,0.23 -0.53,0.47 -1,0.61 -0.44,0.14 -1.09,0.28 -1.83,0.38 C 8.27,306.95 7.27,307 6.1,307 4.92,307 3.96,306.95 3.18,306.86 2.39,306.76 1.74,306.62 1.31,306.48 0.83,306.34 0.48,306.1 0.3,305.87 0.09,305.65 0,305.37 0,305.04 c 0,-19.03 0,-38.07 0,-57.1 0,-0.33 0.09,-0.61 0.3,-0.85 0.18,-0.24 0.53,-0.45 1.05,-0.61 0.44,-0.12 1.04,-0.26 1.83,-0.36 0.78,-0.09 1.74,-0.14 2.92,-0.14 1.17,0 2.17,0.05 2.96,0.14 0.74,0.1 1.39,0.24 1.83,0.36 0.47,0.16 0.78,0.37 1,0.61 0.17,0.24 0.3,0.52 0.3,0.85 0,19.03 0,38.07 0,57.1 z"
   class="st5"
   id="path60"
   inkscape:connector-curvature="0"
   style="fill:#18716a;stroke:none;stroke-width:1;stroke-linecap:round;stroke-linejoin:round" />
				</g>
				<g
   id="shape68-24"
   transform="translate(226.92,-150.868)">
					<title
   id="title63">Sheet.68</title>
					<path
   d="m 49.59,275.89 c 0,5.55 -0.69,10.28 -2.13,14.21 -1.39,3.97 -3.53,7.16 -6.18,9.67 -2.62,2.48 -5.92,4.27 -9.71,5.46 -3.83,1.18 -8.41,1.77 -13.72,1.77 -4.74,0 -9.53,0 -14.28,0 -1,0 -1.83,-0.33 -2.53,-0.92 C 0.35,305.46 0,304.47 0,303.12 c 0,-17.56 0,-35.13 0,-52.7 0,-1.37 0.35,-2.38 1.04,-3 0.7,-0.61 1.53,-0.87 2.53,-0.87 5.14,0 10.23,0 15.33,0 5.31,0 9.84,0.59 13.58,1.86 3.66,1.28 6.88,3.13 9.36,5.61 2.53,2.48 4.49,5.55 5.79,9.19 1.31,3.67 1.96,7.85 1.96,12.68 z m -12.54,0.42 c 0,-2.86 -0.34,-5.53 -0.95,-7.99 -0.7,-2.48 -1.79,-4.59 -3.18,-6.41 -1.48,-1.82 -3.44,-3.21 -5.66,-4.25 -2.31,-0.99 -5.32,-1.49 -9.02,-1.49 -2.09,0 -4.09,0 -6.18,0 0,13.71 0,27.4 0,41.11 2.13,0 4.22,0 6.36,0 3.31,0 6.14,-0.42 8.36,-1.3 2.26,-0.9 4.22,-2.2 5.75,-3.97 1.52,-1.75 2.65,-3.92 3.39,-6.55 0.74,-2.62 1.13,-5.65 1.13,-9.15 z"
   class="st5"
   id="path65"
   inkscape:connector-curvature="0"
   style="fill:#18716a;stroke:none;stroke-width:1;stroke-linecap:round;stroke-linejoin:round" />
				</g>
				<g
   id="shape69-26"
   transform="translate(286.485,-150.585)">
					<title
   id="title68">Sheet.69</title>
					<path
   d="m 12.19,305.04 c 0,0.33 -0.09,0.61 -0.26,0.83 -0.26,0.23 -0.57,0.47 -1.04,0.61 -0.44,0.14 -1.05,0.28 -1.83,0.38 C 8.27,306.95 7.31,307 6.1,307 4.96,307 3.96,306.95 3.18,306.86 2.39,306.76 1.74,306.62 1.31,306.48 0.83,306.34 0.52,306.1 0.35,305.87 0.09,305.65 0,305.37 0,305.04 c 0,-19.03 0,-38.07 0,-57.1 0,-0.33 0.09,-0.61 0.35,-0.85 0.17,-0.24 0.48,-0.45 1,-0.61 0.44,-0.12 1.04,-0.26 1.83,-0.36 0.78,-0.09 1.78,-0.14 2.92,-0.14 1.21,0 2.17,0.05 2.96,0.14 0.78,0.1 1.39,0.24 1.83,0.36 0.47,0.16 0.78,0.37 1.04,0.61 0.17,0.24 0.26,0.52 0.26,0.85 0,19.03 0,38.07 0,57.1 z"
   class="st5"
   id="path70"
   inkscape:connector-curvature="0"
   style="fill:#18716a;stroke:none;stroke-width:1;stroke-linecap:round;stroke-linejoin:round" />
				</g>
				<g
   id="shape70-28"
   transform="translate(306.351,-150.585)">
					<title
   id="title73">Sheet.70</title>
					<path
   d="m 54.28,302.13 c 0.35,1.13 0.57,2.01 0.7,2.67 0.04,0.66 -0.04,1.11 -0.39,1.44 -0.31,0.33 -0.92,0.57 -1.79,0.67 -0.87,0.04 -2.04,0.09 -3.57,0.09 -1.56,0 -2.74,0 -3.65,-0.05 -0.88,-0.04 -1.57,-0.14 -2.01,-0.33 -0.48,-0.14 -0.82,-0.33 -1,-0.57 -0.17,-0.23 -0.3,-0.54 -0.43,-0.97 -1.31,-4.04 -2.7,-8.1 -4.01,-12.15 -7.49,0 -14.98,0 -22.47,0 -1.22,3.95 -2.52,7.88 -3.74,11.82 -0.13,0.43 -0.31,0.78 -0.48,1.07 -0.22,0.33 -0.57,0.57 -1,0.71 -0.44,0.19 -1.09,0.33 -1.87,0.38 -0.83,0.04 -1.88,0.09 -3.23,0.09 -1.43,0 -2.52,-0.05 -3.31,-0.14 -0.78,-0.1 -1.35,-0.33 -1.65,-0.71 -0.35,-0.33 -0.44,-0.83 -0.35,-1.49 0.09,-0.66 0.35,-1.54 0.7,-2.62 6.01,-17.88 12.41,-35.75 18.42,-53.65 0.17,-0.5 0.43,-0.97 0.65,-1.3 0.22,-0.33 0.65,-0.54 1.17,-0.73 0.53,-0.14 1.27,-0.29 2.23,-0.33 1,-0.05 2.22,-0.05 3.78,-0.05 1.79,0 3.27,0 4.36,0.05 1.04,0.04 1.91,0.19 2.52,0.33 0.61,0.19 1.05,0.47 1.31,0.78 0.22,0.33 0.48,0.8 0.65,1.39 6.01,17.9 12.41,35.73 18.46,53.6 z M 26.85,257.8 c -0.04,0 -0.04,0 -0.04,0 -2.74,8.56 -5.7,17.12 -8.45,25.7 5.62,0 11.28,0 16.94,0 -2.74,-8.58 -5.7,-17.14 -8.45,-25.7 z"
   class="st5"
   id="path75"
   inkscape:connector-curvature="0"
   style="fill:#18716a;stroke:none;stroke-width:1;stroke-linecap:round;stroke-linejoin:round" />
				</g>
				<g
   id="shape71-30"
   transform="translate(368.995,-150.585)">
					<title
   id="title78">Sheet.71</title>
					<path
   d="m 49.25,302.41 c 0,0.71 -0.18,1.35 -0.4,1.92 -0.21,0.57 -0.56,1.04 -0.95,1.39 -0.4,0.38 -0.92,0.67 -1.49,0.81 -0.6,0.19 -1.17,0.28 -1.74,0.28 -1.74,0 -3.48,0 -5.18,0 -1.04,0 -2,-0.09 -2.74,-0.33 -0.83,-0.24 -1.57,-0.59 -2.22,-1.21 -0.65,-0.56 -1.31,-1.37 -1.92,-2.34 -0.61,-0.99 -1.3,-2.24 -2.09,-3.78 -4.83,-9.43 -9.97,-18.84 -14.85,-28.28 -0.87,-1.67 -1.78,-3.49 -2.61,-5.46 -0.87,-1.91 -1.74,-3.83 -2.39,-5.65 -0.05,0 -0.09,0 -0.13,0 0.13,2.25 0.26,4.47 0.3,6.67 0.05,2.25 0.09,4.54 0.09,6.93 0,10.54 0,21.09 0,31.63 0,0.33 -0.09,0.59 -0.26,0.83 -0.18,0.23 -0.44,0.47 -0.87,0.61 -0.4,0.19 -1,0.33 -1.7,0.43 C 7.4,306.95 6.49,307 5.36,307 4.31,307 3.4,306.95 2.7,306.86 2,306.76 1.48,306.62 1.04,306.43 0.65,306.29 0.35,306.05 0.22,305.82 0.09,305.58 0,305.32 0,304.99 c 0,-18.11 0,-36.22 0,-54.33 0,-1.46 0.39,-2.58 1.26,-3.33 0.83,-0.71 1.87,-1.07 3.09,-1.07 2.18,0 4.36,0 6.54,0 1.13,0 2.17,0.1 2.91,0.29 0.83,0.23 1.57,0.54 2.22,1.01 0.57,0.48 1.18,1.11 1.74,1.92 0.53,0.85 1.09,1.87 1.7,3.1 3.79,7.37 7.84,14.7 11.63,22.08 0.7,1.37 1.35,2.67 2.04,3.92 0.61,1.33 1.31,2.63 1.88,3.88 0.61,1.32 1.22,2.58 1.78,3.83 0.61,1.28 1.18,2.48 1.74,3.73 0,0 0.05,0 0.05,0 -0.09,-2.19 -0.13,-4.42 -0.22,-6.8 0,-2.39 -0.04,-4.64 -0.04,-6.79 0,-9.43 0,-18.89 0,-28.35 0,-0.33 0.04,-0.61 0.26,-0.85 0.17,-0.23 0.48,-0.45 0.91,-0.64 0.39,-0.18 1,-0.33 1.7,-0.42 0.7,-0.05 1.61,-0.1 2.74,-0.1 1.05,0 1.92,0.05 2.62,0.1 0.69,0.09 1.26,0.24 1.65,0.42 0.39,0.19 0.65,0.41 0.83,0.64 0.13,0.24 0.22,0.52 0.22,0.85 0,18.11 0,36.22 0,54.33 z"
   class="st5"
   id="path80"
   inkscape:connector-curvature="0"
   style="fill:#18716a;stroke:none;stroke-width:1;stroke-linecap:round;stroke-linejoin:round" />
				</g>
				<g
   id="shape72-32"
   transform="translate(0,-54.6607)">
					<title
   id="title83">Sheet.72</title>
					<path
   d="m 42.53,255.13 c 0,0.84 -0.04,1.57 -0.08,2.14 -0.08,0.62 -0.2,1.08 -0.37,1.43 -0.12,0.4 -0.28,0.66 -0.48,0.84 -0.2,0.17 -0.49,0.24 -0.73,0.24 -4.66,0 -9.29,0 -13.95,0 0,15.14 0,30.27 0,45.39 0,0.31 -0.08,0.58 -0.24,0.77 -0.2,0.22 -0.53,0.44 -0.93,0.58 -0.45,0.13 -1.02,0.26 -1.75,0.35 -0.73,0.09 -1.66,0.13 -2.71,0.13 -1.1,0 -1.99,-0.04 -2.72,-0.13 -0.77,-0.09 -1.34,-0.22 -1.78,-0.35 -0.45,-0.14 -0.73,-0.36 -0.9,-0.58 -0.2,-0.19 -0.32,-0.46 -0.32,-0.77 0,-15.12 0,-30.25 0,-45.39 -4.62,0 -9.25,0 -13.91,0 -0.28,0 -0.52,-0.07 -0.73,-0.24 C 0.73,259.36 0.53,259.1 0.41,258.7 0.28,258.35 0.16,257.89 0.12,257.27 0.04,256.7 0,255.97 0,255.13 c 0,-0.86 0.04,-1.6 0.12,-2.22 0.04,-0.59 0.16,-1.08 0.29,-1.48 0.12,-0.33 0.32,-0.59 0.52,-0.79 0.21,-0.11 0.45,-0.2 0.73,-0.2 13.06,0 26.11,0 39.21,0 0.24,0 0.53,0.09 0.73,0.2 0.2,0.2 0.36,0.46 0.48,0.79 0.17,0.4 0.29,0.89 0.37,1.48 0.04,0.62 0.08,1.36 0.08,2.22 z"
   class="st5"
   id="path85"
   inkscape:connector-curvature="0"
   style="fill:#18716a;stroke:none;stroke-width:1;stroke-linecap:round;stroke-linejoin:round" />
				</g>
				<g
   id="shape73-34"
   transform="translate(48.5041,-54.9009)">
					<title
   id="title88">Sheet.73</title>
					<path
   d="m 30.01,302.92 c 0,0.76 -0.07,1.38 -0.11,1.9 -0.07,0.52 -0.18,0.96 -0.29,1.28 -0.11,0.3 -0.3,0.54 -0.48,0.66 -0.19,0.16 -0.41,0.24 -0.66,0.24 -8.49,0 -16.93,0 -25.41,0 -0.85,0 -1.59,-0.28 -2.14,-0.78 C 0.33,305.7 0,304.86 0,303.72 c 0,-14.88 0,-29.75 0,-44.63 0,-1.16 0.33,-2.02 0.92,-2.54 0.55,-0.52 1.29,-0.74 2.14,-0.74 8.41,0 16.85,0 25.26,0 0.22,0 0.44,0.08 0.62,0.18 0.19,0.14 0.37,0.36 0.48,0.68 0.11,0.36 0.23,0.76 0.3,1.26 0.04,0.52 0.07,1.2 0.07,1.98 0,0.76 -0.03,1.36 -0.07,1.86 -0.07,0.52 -0.19,0.96 -0.3,1.26 -0.11,0.32 -0.29,0.56 -0.48,0.68 -0.18,0.16 -0.4,0.24 -0.62,0.24 -6.01,0 -12.06,0 -18.07,0 0,4.17 0,8.33 0,12.5 5.09,0 10.21,0 15.27,0 0.25,0 0.47,0.08 0.7,0.2 0.18,0.16 0.33,0.4 0.44,0.68 0.15,0.32 0.26,0.7 0.33,1.22 0.04,0.52 0.07,1.14 0.07,1.9 0,0.74 -0.03,1.38 -0.07,1.9 -0.07,0.52 -0.18,0.91 -0.33,1.19 -0.11,0.32 -0.26,0.54 -0.44,0.68 -0.23,0.12 -0.45,0.18 -0.7,0.18 -5.06,0 -10.18,0 -15.27,0 0,4.82 0,9.63 0,14.45 6.08,0 12.13,0 18.22,0 0.25,0 0.47,0.08 0.66,0.2 0.18,0.16 0.37,0.38 0.48,0.7 0.11,0.32 0.22,0.72 0.29,1.24 0.04,0.5 0.11,1.18 0.11,1.93 z"
   class="st5"
   id="path90"
   inkscape:connector-curvature="0"
   style="fill:#18716a;stroke:none;stroke-width:1;stroke-linecap:round;stroke-linejoin:round" />
				</g>
				<g
   id="shape74-36"
   transform="translate(83.9752,-54.0601)">
					<title
   id="title93">Sheet.74</title>
					<path
   d="m 37.39,298.41 c 0,0.66 0,1.22 -0.04,1.66 -0.04,0.46 -0.11,0.86 -0.18,1.18 -0.08,0.36 -0.19,0.64 -0.3,0.88 -0.15,0.23 -0.37,0.51 -0.62,0.79 -0.3,0.32 -0.85,0.7 -1.66,1.18 -0.82,0.48 -1.85,0.9 -3.03,1.34 -1.18,0.46 -2.54,0.82 -4.05,1.12 -1.52,0.28 -3.21,0.44 -4.98,0.44 -3.47,0 -6.6,-0.56 -9.37,-1.62 -2.76,-1.1 -5.2,-2.7 -7.11,-4.87 -1.92,-2.16 -3.47,-4.84 -4.5,-8.05 C 0.52,289.26 0,285.5 0,281.23 0,276.87 0.59,273 1.73,269.64 c 1.11,-3.36 2.77,-6.21 4.8,-8.51 2.02,-2.3 4.53,-4.02 7.41,-5.22 2.84,-1.2 6.01,-1.79 9.51,-1.79 1.4,0 2.77,0.12 4.06,0.37 1.29,0.24 2.5,0.56 3.65,0.9 1.07,0.4 2.06,0.84 2.95,1.36 0.88,0.52 1.55,0.9 1.88,1.26 0.33,0.36 0.59,0.68 0.7,0.9 0.11,0.24 0.22,0.56 0.33,0.92 0.07,0.36 0.15,0.78 0.18,1.3 0.04,0.52 0.04,1.1 0.04,1.86 0,0.78 -0.04,1.47 -0.07,2.03 -0.04,0.54 -0.15,0.98 -0.26,1.34 -0.15,0.36 -0.3,0.58 -0.48,0.76 -0.18,0.14 -0.41,0.22 -0.63,0.22 -0.4,0 -0.92,-0.22 -1.51,-0.7 -0.55,-0.44 -1.36,-0.94 -2.28,-1.56 -0.96,-0.54 -2.14,-1.04 -3.4,-1.53 -1.32,-0.44 -2.87,-0.68 -4.75,-0.68 -1.99,0 -3.8,0.38 -5.35,1.23 -1.59,0.84 -2.95,2.02 -4.02,3.56 -1.11,1.54 -1.95,3.44 -2.54,5.62 -0.56,2.17 -0.85,4.67 -0.85,7.39 0,3.01 0.33,5.63 0.92,7.81 0.59,2.2 1.51,4.02 2.62,5.45 1.1,1.44 2.54,2.5 4.13,3.16 1.58,0.72 3.39,1.08 5.38,1.08 1.84,0 3.39,-0.24 4.72,-0.68 1.33,-0.44 2.47,-0.9 3.47,-1.42 0.92,-0.52 1.69,-0.98 2.32,-1.42 0.59,-0.44 1.07,-0.64 1.4,-0.64 0.3,0 0.48,0.04 0.63,0.16 0.18,0.12 0.29,0.32 0.4,0.64 0.11,0.32 0.19,0.74 0.22,1.3 0.04,0.6 0.08,1.34 0.08,2.3 z"
   class="st5"
   id="path95"
   inkscape:connector-curvature="0"
   style="fill:#18716a;stroke:none;stroke-width:1;stroke-linecap:round;stroke-linejoin:round" />
				</g>
				<g
   id="shape75-38"
   transform="translate(128.775,-54.6607)">
					<title
   id="title98">Sheet.75</title>
					<path
   d="m 39.45,305.34 c 0,0.28 -0.07,0.52 -0.22,0.7 -0.18,0.2 -0.48,0.4 -0.85,0.52 -0.4,0.12 -0.92,0.24 -1.58,0.32 -0.67,0.08 -1.48,0.12 -2.44,0.12 -1.03,0 -1.84,-0.04 -2.5,-0.12 -0.67,-0.08 -1.22,-0.2 -1.59,-0.32 -0.37,-0.12 -0.66,-0.32 -0.81,-0.52 -0.18,-0.18 -0.26,-0.42 -0.26,-0.7 0,-6.91 0,-13.8 0,-20.7 -6.3,0 -12.61,0 -18.95,0 0,6.9 0,13.79 0,20.7 0,0.28 -0.07,0.52 -0.22,0.7 -0.15,0.2 -0.41,0.4 -0.81,0.52 -0.41,0.12 -0.89,0.24 -1.59,0.32 C 7.01,306.96 6.16,307 5.13,307 4.17,307 3.36,306.96 2.69,306.88 2.03,306.8 1.47,306.68 1.07,306.56 0.7,306.44 0.41,306.24 0.26,306.04 0.07,305.86 0,305.62 0,305.34 0,289.22 0,273.1 0,256.99 c 0,-0.28 0.07,-0.52 0.26,-0.72 0.15,-0.2 0.44,-0.38 0.81,-0.52 0.4,-0.1 0.96,-0.22 1.62,-0.3 0.67,-0.08 1.48,-0.12 2.44,-0.12 1.03,0 1.88,0.04 2.5,0.12 0.7,0.08 1.18,0.2 1.59,0.3 0.4,0.14 0.66,0.32 0.81,0.52 0.15,0.2 0.22,0.44 0.22,0.72 0,6.26 0,12.53 0,18.8 6.34,0 12.65,0 18.95,0 0,-6.27 0,-12.54 0,-18.8 0,-0.28 0.08,-0.52 0.26,-0.72 0.15,-0.2 0.44,-0.38 0.81,-0.52 0.37,-0.1 0.92,-0.22 1.59,-0.3 0.66,-0.08 1.47,-0.12 2.5,-0.12 0.96,0 1.77,0.04 2.44,0.12 0.66,0.08 1.18,0.2 1.58,0.3 0.37,0.14 0.67,0.32 0.85,0.52 0.15,0.2 0.22,0.44 0.22,0.72 0,16.11 0,32.23 0,48.35 z"
   class="st5"
   id="path100"
   inkscape:connector-curvature="0"
   style="fill:#18716a;stroke:none;stroke-width:1;stroke-linecap:round;stroke-linejoin:round" />
				</g>
				<g
   id="shape76-40"
   transform="translate(179.253,-54.6607)">
					<title
   id="title103">Sheet.76</title>
					<path
   d="m 41.7,303.12 c 0,0.6 -0.11,1.14 -0.29,1.62 -0.19,0.48 -0.48,0.88 -0.81,1.18 -0.37,0.32 -0.81,0.56 -1.26,0.68 -0.51,0.16 -0.99,0.24 -1.51,0.24 -1.44,0 -2.91,0 -4.35,0 -0.92,0 -1.7,-0.08 -2.36,-0.28 -0.66,-0.2 -1.29,-0.5 -1.84,-1.02 -0.56,-0.48 -1.15,-1.16 -1.63,-1.98 -0.51,-0.84 -1.1,-1.91 -1.77,-3.21 -4.13,-7.99 -8.44,-15.95 -12.57,-23.94 -0.74,-1.42 -1.51,-2.97 -2.25,-4.63 C 10.32,270.16 9.62,268.54 9.03,267 9,267 9,267 8.96,267 c 0.11,1.9 0.18,3.78 0.26,5.64 0,1.91 0.03,3.85 0.03,5.87 0,8.93 0,17.86 0,26.79 0,0.28 -0.07,0.5 -0.18,0.7 -0.15,0.2 -0.41,0.4 -0.74,0.52 C 8,306.68 7.49,306.8 6.9,306.88 6.31,306.96 5.53,307 4.57,307 3.69,307 2.91,306.96 2.32,306.88 1.73,306.8 1.25,306.68 0.92,306.52 0.55,306.4 0.33,306.2 0.18,306 0.11,305.8 0,305.58 0,305.3 c 0,-15.34 0,-30.67 0,-46.01 0,-1.24 0.37,-2.18 1.11,-2.82 0.7,-0.6 1.54,-0.9 2.61,-0.9 1.85,0 3.69,0 5.5,0 0.99,0 1.84,0.08 2.51,0.24 0.66,0.2 1.32,0.46 1.84,0.86 0.52,0.4 1.03,0.94 1.51,1.62 0.44,0.72 0.92,1.58 1.44,2.62 3.21,6.25 6.6,12.45 9.84,18.7 0.56,1.16 1.15,2.26 1.74,3.32 0.51,1.13 1.07,2.23 1.58,3.29 0.48,1.12 1.03,2.18 1.51,3.24 0.52,1.08 1,2.1 1.44,3.16 0.04,0 0.04,0 0.04,0 -0.04,-1.86 -0.11,-3.74 -0.15,-5.76 -0.04,-2.02 -0.07,-3.93 -0.07,-5.75 0,-7.99 0,-15.99 0,-24 0,-0.28 0.07,-0.52 0.22,-0.72 0.18,-0.2 0.44,-0.38 0.81,-0.54 0.33,-0.16 0.85,-0.28 1.44,-0.36 0.59,-0.04 1.36,-0.08 2.28,-0.08 0.93,0 1.66,0.04 2.25,0.08 0.59,0.08 1.07,0.2 1.4,0.36 0.3,0.16 0.56,0.34 0.67,0.54 0.11,0.2 0.18,0.44 0.18,0.72 0,15.33 0,30.67 0,46.01 z"
   class="st5"
   id="path105"
   inkscape:connector-curvature="0"
   style="fill:#18716a;stroke:none;stroke-width:1;stroke-linecap:round;stroke-linejoin:round" />
				</g>
				<g
   id="shape77-42"
   transform="translate(229.621,-54)">
					<title
   id="title108">Sheet.77</title>
					<path
   d="m 47.86,279.91 c 0,4.23 -0.52,8.03 -1.55,11.39 -1.03,3.37 -2.62,6.17 -4.64,8.51 -2.03,2.34 -4.65,4.09 -7.64,5.33 -3.02,1.24 -6.56,1.86 -10.54,1.86 -3.95,0 -7.38,-0.5 -10.29,-1.58 -2.91,-1.04 -5.42,-2.6 -7.34,-4.75 C 3.91,298.53 2.43,295.81 1.47,292.52 0.52,289.24 0,285.32 0,280.81 c 0,-4.14 0.52,-7.87 1.55,-11.19 1.03,-3.28 2.62,-6.09 4.64,-8.43 2.03,-2.34 4.65,-4.1 7.67,-5.34 2.99,-1.24 6.53,-1.87 10.55,-1.87 3.83,0 7.26,0.51 10.18,1.55 2.91,1.04 5.38,2.6 7.33,4.74 1.92,2.14 3.47,4.85 4.47,8.09 0.95,3.28 1.47,7.13 1.47,11.55 z m -10.77,0.54 c 0,-2.68 -0.22,-5.14 -0.62,-7.35 -0.45,-2.18 -1.15,-4.08 -2.11,-5.66 -1.03,-1.54 -2.39,-2.76 -4.05,-3.63 -1.66,-0.84 -3.73,-1.28 -6.23,-1.28 -2.55,0 -4.69,0.46 -6.34,1.42 -1.66,1.01 -3.06,2.27 -4.1,3.89 -1.03,1.62 -1.77,3.48 -2.21,5.6 -0.41,2.19 -0.66,4.45 -0.66,6.85 0,2.83 0.22,5.31 0.62,7.53 0.45,2.26 1.15,4.14 2.11,5.73 0.95,1.6 2.36,2.76 4.01,3.6 1.66,0.84 3.73,1.26 6.27,1.26 2.55,0 4.69,-0.46 6.34,-1.42 1.66,-0.94 3.07,-2.24 4.1,-3.86 1.03,-1.63 1.8,-3.57 2.25,-5.75 0.4,-2.16 0.62,-4.47 0.62,-6.93 z"
   class="st5"
   id="path110"
   inkscape:connector-curvature="0"
   style="fill:#18716a;stroke:none;stroke-width:1;stroke-linecap:round;stroke-linejoin:round" />
				</g>
				<g
   id="shape78-44"
   transform="translate(286.109,-54.9009)">
					<title
   id="title113">Sheet.78</title>
					<path
   d="m 27.8,302.66 c 0,0.78 -0.04,1.46 -0.07,1.96 -0.08,0.56 -0.19,1 -0.3,1.36 -0.11,0.34 -0.29,0.62 -0.48,0.78 -0.18,0.16 -0.44,0.24 -0.7,0.24 -7.74,0 -15.45,0 -23.19,0 -0.85,0 -1.55,-0.28 -2.14,-0.78 C 0.33,305.7 0,304.86 0,303.72 c 0,-15.5 0,-31 0,-46.49 0,-0.28 0.11,-0.52 0.29,-0.72 0.15,-0.2 0.45,-0.38 0.82,-0.52 0.4,-0.1 0.95,-0.22 1.62,-0.3 0.66,-0.08 1.47,-0.12 2.43,-0.12 1.03,0 1.85,0.04 2.51,0.12 0.66,0.08 1.18,0.2 1.58,0.3 0.37,0.14 0.67,0.32 0.85,0.52 0.15,0.2 0.26,0.44 0.26,0.72 0,13.73 0,27.45 0,41.18 5.27,0 10.58,0 15.89,0 0.26,0 0.52,0.08 0.7,0.2 0.19,0.16 0.37,0.4 0.48,0.7 0.11,0.36 0.22,0.8 0.3,1.32 0.03,0.54 0.07,1.22 0.07,2.03 z"
   class="st5"
   id="path115"
   inkscape:connector-curvature="0"
   style="fill:#18716a;stroke:none;stroke-width:1;stroke-linecap:round;stroke-linejoin:round" />
				</g>
				<g
   id="shape79-46"
   transform="translate(316.197,-54)">
					<title
   id="title118">Sheet.79</title>
					<path
   d="m 47.9,279.91 c 0,4.23 -0.56,8.03 -1.59,11.39 -1.03,3.37 -2.62,6.17 -4.64,8.51 -2.07,2.34 -4.65,4.09 -7.64,5.33 -3.02,1.24 -6.56,1.86 -10.54,1.86 -3.95,0 -7.38,-0.5 -10.29,-1.58 -2.91,-1.04 -5.42,-2.6 -7.34,-4.75 C 3.95,298.53 2.43,295.81 1.47,292.52 0.52,289.24 0,285.32 0,280.81 c 0,-4.14 0.52,-7.87 1.55,-11.19 1.03,-3.28 2.62,-6.09 4.64,-8.43 2.07,-2.34 4.65,-4.1 7.67,-5.34 2.99,-1.24 6.53,-1.87 10.55,-1.87 3.83,0 7.26,0.51 10.18,1.55 2.91,1.04 5.38,2.6 7.33,4.74 1.92,2.14 3.47,4.85 4.47,8.09 0.95,3.28 1.51,7.13 1.51,11.55 z m -10.81,0.54 c 0,-2.68 -0.22,-5.14 -0.62,-7.35 -0.45,-2.18 -1.18,-4.08 -2.14,-5.66 -0.96,-1.54 -2.32,-2.76 -3.98,-3.63 -1.7,-0.84 -3.77,-1.28 -6.27,-1.28 -2.55,0 -4.69,0.46 -6.34,1.42 -1.66,1.01 -3.06,2.27 -4.1,3.89 -1.03,1.62 -1.77,3.48 -2.21,5.6 -0.41,2.19 -0.66,4.45 -0.66,6.85 0,2.83 0.22,5.31 0.62,7.53 0.45,2.26 1.18,4.14 2.14,5.73 0.96,1.6 2.29,2.76 3.98,3.6 1.66,0.84 3.77,1.26 6.27,1.26 2.55,0 4.69,-0.46 6.34,-1.42 1.66,-0.94 3.07,-2.24 4.1,-3.86 1.07,-1.63 1.8,-3.57 2.25,-5.75 0.4,-2.16 0.62,-4.47 0.62,-6.93 z"
   class="st5"
   id="path120"
   inkscape:connector-curvature="0"
   style="fill:#18716a;stroke:none;stroke-width:1;stroke-linecap:round;stroke-linejoin:round" />
				</g>
				<g
   id="shape80-48"
   transform="translate(368.85,-54.04)">
					<title
   id="title123">Sheet.80</title>
					<path
   d="m 43.21,262.89 c 0,0.76 -0.03,1.43 -0.07,1.99 -0.07,0.54 -0.15,0.98 -0.26,1.3 -0.15,0.36 -0.29,0.6 -0.44,0.72 -0.18,0.1 -0.41,0.2 -0.63,0.2 -0.37,0 -0.92,-0.24 -1.62,-0.72 -0.77,-0.48 -1.77,-0.98 -3.02,-1.54 -1.26,-0.56 -2.73,-1.07 -4.46,-1.55 -1.74,-0.48 -3.77,-0.72 -6.09,-0.72 -2.43,0 -4.64,0.42 -6.64,1.28 -1.95,0.87 -3.68,2.09 -5.05,3.63 -1.4,1.58 -2.54,3.48 -3.24,5.66 -0.74,2.21 -1.14,4.67 -1.14,7.31 0,2.95 0.4,5.51 1.18,7.73 0.73,2.26 1.84,4.1 3.2,5.61 1.33,1.52 3.06,2.64 4.98,3.4 1.92,0.76 4.06,1.16 6.42,1.16 1.14,0 2.28,-0.12 3.39,-0.4 1.14,-0.28 2.17,-0.68 3.13,-1.18 0,-3.96 0,-7.93 0,-11.87 -3.17,0 -6.38,0 -9.58,0 -0.45,0 -0.81,-0.32 -1.07,-0.92 -0.26,-0.58 -0.41,-1.59 -0.41,-3.01 0,-0.76 0.04,-1.34 0.11,-1.86 0.04,-0.52 0.19,-0.9 0.3,-1.22 0.11,-0.28 0.26,-0.52 0.44,-0.68 0.22,-0.12 0.41,-0.18 0.63,-0.18 5.71,0 11.39,0 17.11,0 0.4,0 0.77,0.06 1.14,0.18 0.29,0.16 0.59,0.4 0.85,0.68 0.22,0.28 0.44,0.64 0.55,1.02 0.11,0.44 0.18,0.92 0.18,1.42 0,6.81 0,13.6 0,20.38 0,0.8 -0.11,1.46 -0.4,2.07 -0.26,0.6 -0.85,1.06 -1.66,1.42 -0.85,0.36 -1.92,0.7 -3.17,1.06 -1.26,0.38 -2.55,0.68 -3.87,0.96 -1.37,0.28 -2.7,0.46 -4.06,0.6 -1.4,0.12 -2.77,0.18 -4.17,0.18 -4.02,0 -7.67,-0.56 -10.8,-1.76 C 11.76,304.06 9.03,302.4 6.82,300.13 4.65,297.89 2.91,295.19 1.73,291.96 0.59,288.76 0,285.16 0,281.09 c 0,-4.18 0.63,-7.95 1.88,-11.31 1.22,-3.32 3.02,-6.17 5.31,-8.51 2.25,-2.34 5.09,-4.1 8.3,-5.34 3.24,-1.24 6.85,-1.87 10.84,-1.87 2.17,0 4.2,0.16 5.97,0.45 1.81,0.32 3.39,0.66 4.72,1.1 1.36,0.46 2.47,0.92 3.36,1.44 0.88,0.52 1.51,0.94 1.88,1.3 0.33,0.34 0.59,0.86 0.73,1.54 0.15,0.66 0.22,1.7 0.22,3 z"
   class="st5"
   id="path125"
   inkscape:connector-curvature="0"
   style="fill:#18716a;stroke:none;stroke-width:1;stroke-linecap:round;stroke-linejoin:round" />
				</g>
				<g
   id="shape81-50"
   transform="translate(422.499,-54.6607)">
					<title
   id="title128">Sheet.81</title>
					<path
   d="m 10.32,305.34 c 0,0.28 -0.07,0.52 -0.22,0.7 -0.22,0.2 -0.48,0.4 -0.88,0.52 -0.37,0.12 -0.89,0.24 -1.55,0.32 C 7.01,306.96 6.19,307 5.16,307 4.17,307 3.36,306.96 2.69,306.88 2.03,306.8 1.47,306.68 1.11,306.56 0.7,306.44 0.44,306.24 0.29,306.04 0.07,305.86 0,305.62 0,305.34 0,289.22 0,273.1 0,256.99 c 0,-0.28 0.07,-0.52 0.29,-0.72 0.15,-0.2 0.41,-0.38 0.85,-0.52 0.37,-0.1 0.89,-0.22 1.55,-0.3 0.67,-0.08 1.48,-0.12 2.47,-0.12 1.03,0 1.85,0.04 2.51,0.12 0.66,0.08 1.18,0.2 1.55,0.3 0.4,0.14 0.66,0.32 0.88,0.52 0.15,0.2 0.22,0.44 0.22,0.72 0,16.11 0,32.23 0,48.35 z"
   class="st5"
   id="path130"
   inkscape:connector-curvature="0"
   style="fill:#18716a;stroke:none;stroke-width:1;stroke-linecap:round;stroke-linejoin:round" />
				</g>
				<g
   id="shape82-52"
   transform="translate(443.848,-54.9009)">
					<title
   id="title133">Sheet.82</title>
					<path
   d="m 29.98,302.92 c 0,0.76 -0.04,1.38 -0.08,1.9 -0.07,0.52 -0.18,0.96 -0.29,1.28 -0.15,0.3 -0.3,0.54 -0.48,0.66 -0.22,0.16 -0.44,0.24 -0.66,0.24 -8.49,0 -16.97,0 -25.41,0 -0.88,0 -1.59,-0.28 -2.18,-0.78 C 0.33,305.7 0,304.86 0,303.72 c 0,-14.88 0,-29.75 0,-44.63 0,-1.16 0.33,-2.02 0.88,-2.54 0.59,-0.52 1.3,-0.74 2.18,-0.74 8.41,0 16.81,0 25.22,0 0.26,0 0.44,0.08 0.63,0.18 0.22,0.14 0.37,0.36 0.48,0.68 0.11,0.36 0.26,0.76 0.33,1.26 0.04,0.52 0.07,1.2 0.07,1.98 0,0.76 -0.03,1.36 -0.07,1.86 -0.07,0.52 -0.22,0.96 -0.33,1.26 -0.11,0.32 -0.26,0.56 -0.48,0.68 -0.19,0.16 -0.37,0.24 -0.63,0.24 -6.01,0 -12.02,0 -18.03,0 0,4.17 0,8.33 0,12.5 5.09,0 10.18,0 15.27,0 0.25,0 0.47,0.08 0.66,0.2 0.18,0.16 0.37,0.4 0.48,0.68 0.11,0.32 0.22,0.7 0.29,1.22 0.04,0.52 0.08,1.14 0.08,1.9 0,0.74 -0.04,1.38 -0.08,1.9 -0.07,0.52 -0.18,0.91 -0.29,1.19 -0.11,0.32 -0.3,0.54 -0.48,0.68 -0.19,0.12 -0.41,0.18 -0.66,0.18 -5.09,0 -10.18,0 -15.27,0 0,4.82 0,9.63 0,14.45 6.05,0 12.13,0 18.22,0 0.22,0 0.44,0.08 0.66,0.2 0.18,0.16 0.33,0.38 0.48,0.7 0.11,0.32 0.22,0.72 0.29,1.24 0.04,0.5 0.08,1.18 0.08,1.93 z"
   class="st5"
   id="path135"
   inkscape:connector-curvature="0"
   style="fill:#18716a;stroke:none;stroke-width:1;stroke-linecap:round;stroke-linejoin:round" />
				</g>
				<g
   id="shape83-54"
   transform="translate(479.061,-54)">
					<title
   id="title138">Sheet.83</title>
					<path
   d="m 33.04,290.74 c 0,2.71 -0.52,5.07 -1.48,7.09 -0.96,2.02 -2.39,3.7 -4.05,5.07 -1.66,1.4 -3.69,2.4 -5.94,3.08 -2.25,0.68 -4.68,1.02 -7.26,1.02 -1.77,0 -3.36,-0.14 -4.83,-0.42 C 7.93,306.3 6.6,305.94 5.49,305.5 4.35,305.1 3.36,304.68 2.62,304.24 1.84,303.8 1.29,303.42 0.96,303.06 0.59,302.7 0.37,302.21 0.26,301.55 0.07,300.91 0,300.01 0,298.77 c 0,-0.82 0.04,-1.5 0.07,-2.04 0.04,-0.56 0.19,-1 0.3,-1.36 0.11,-0.34 0.26,-0.58 0.44,-0.74 0.19,-0.12 0.41,-0.2 0.66,-0.2 0.37,0 0.93,0.2 1.59,0.64 0.66,0.42 1.48,0.94 2.54,1.46 1.04,0.52 2.29,0.98 3.73,1.42 1.44,0.44 3.1,0.66 5.01,0.66 1.26,0 2.4,-0.14 3.36,-0.46 0.99,-0.28 1.88,-0.72 2.54,-1.26 0.67,-0.56 1.22,-1.24 1.55,-2.06 0.37,-0.84 0.55,-1.74 0.55,-2.75 0,-1.14 -0.29,-2.16 -0.92,-3 -0.62,-0.82 -1.47,-1.54 -2.43,-2.22 -1,-0.64 -2.14,-1.22 -3.43,-1.8 -1.29,-0.56 -2.58,-1.14 -3.95,-1.78 -1.36,-0.65 -2.65,-1.35 -3.94,-2.19 -1.29,-0.8 -2.43,-1.74 -3.43,-2.88 -1,-1.12 -1.84,-2.42 -2.43,-3.96 -0.63,-1.55 -0.96,-3.37 -0.96,-5.51 0,-2.44 0.51,-4.62 1.36,-6.49 0.89,-1.86 2.14,-3.38 3.65,-4.62 1.51,-1.24 3.36,-2.12 5.39,-2.72 2.06,-0.61 4.27,-0.93 6.56,-0.93 1.22,0 2.4,0.08 3.61,0.28 1.22,0.21 2.33,0.45 3.36,0.77 1.07,0.32 1.99,0.66 2.76,1.06 0.81,0.4 1.37,0.72 1.63,0.98 0.25,0.28 0.4,0.48 0.55,0.68 0.07,0.2 0.15,0.44 0.22,0.72 0.04,0.3 0.07,0.7 0.11,1.14 0.04,0.48 0.04,1.06 0.04,1.74 0,0.74 0,1.42 -0.04,1.94 -0.04,0.52 -0.11,0.95 -0.18,1.31 -0.11,0.36 -0.22,0.6 -0.37,0.74 -0.22,0.16 -0.44,0.24 -0.74,0.24 -0.26,0 -0.74,-0.18 -1.36,-0.56 -0.63,-0.34 -1.41,-0.78 -2.29,-1.21 -0.92,-0.46 -1.99,-0.84 -3.17,-1.2 -1.22,-0.36 -2.51,-0.52 -3.95,-0.52 -1.14,0 -2.13,0.12 -2.95,0.4 -0.81,0.28 -1.51,0.68 -2.06,1.14 -0.55,0.53 -1,1.13 -1.25,1.81 -0.26,0.66 -0.45,1.42 -0.45,2.16 0,1.14 0.33,2.1 0.96,2.92 0.59,0.84 1.4,1.58 2.47,2.22 1,0.68 2.18,1.27 3.47,1.83 1.29,0.6 2.62,1.18 3.98,1.82 1.36,0.64 2.73,1.34 3.98,2.14 1.29,0.84 2.47,1.76 3.51,2.88 0.99,1.14 1.84,2.45 2.43,3.95 0.63,1.56 0.96,3.32 0.96,5.38 z"
   class="st5"
   id="path140"
   inkscape:connector-curvature="0"
   style="fill:#18716a;stroke:none;stroke-width:1;stroke-linecap:round;stroke-linejoin:round" />
				</g>
			</g>
		</g>
	</g>
</svg>